<svg id="visual" viewBox="0 0 960 540" width="960" height="540" xmlns="http://www.w3.org/2000/svg" xmlns:xlink="http://www.w3.org/1999/xlink" version="1.1"><rect x="0" y="0" width="960" height="540" fill="#ffffff"></rect><path d="M0 221L32 213.5C64 206 128 191 192 231.2C256 271.3 320 366.7 384 394.5C448 422.3 512 382.7 576 353C640 323.3 704 303.7 768 286.3C832 269 896 254 928 246.5L960 239L960 0L928 0C896 0 832 0 768 0C704 0 640 0 576 0C512 0 448 0 384 0C320 0 256 0 192 0C128 0 64 0 32 0L0 0Z" fill="#6600ff"></path><path d="M0 182L32 172.2C64 162.3 128 142.7 192 146.5C256 150.3 320 177.7 384 188.5C448 199.3 512 193.7 576 195C640 196.3 704 204.7 768 218.2C832 231.7 896 250.3 928 259.7L960 269L960 0L928 0C896 0 832 0 768 0C704 0 640 0 576 0C512 0 448 0 384 0C320 0 256 0 192 0C128 0 64 0 32 0L0 0Z" fill="#c391ff"></path><path d="M0 86L32 87.5C64 89 128 92 192 112.2C256 132.3 320 169.7 384 175C448 180.3 512 153.7 576 147.7C640 141.7 704 156.3 768 171.5C832 186.7 896 202.3 928 210.2L960 218L960 0L928 0C896 0 832 0 768 0C704 0 640 0 576 0C512 0 448 0 384 0C320 0 256 0 192 0C128 0 64 0 32 0L0 0Z" fill="#ffffff"></path></svg>