<svg id="visual" viewBox="0 0 960 540" width="960" height="540" xmlns="http://www.w3.org/2000/svg" xmlns:xlink="http://www.w3.org/1999/xlink" version="1.1"><rect x="0" y="0" width="960" height="540" fill="#f2f3f7"></rect><path d="M0 420L16 397.3C32 374.7 64 329.3 96 308.5C128 287.7 160 291.3 192 291.3C224 291.3 256 287.7 288 300.7C320 313.7 352 343.3 384 363.2C416 383 448 393 480 401.2C512 409.3 544 415.7 576 402.8C608 390 640 358 672 355.5C704 353 736 380 768 384.7C800 389.3 832 371.7 864 368.7C896 365.7 928 377.3 944 383.2L960 389L960 0L944 0C928 0 896 0 864 0C832 0 800 0 768 0C736 0 704 0 672 0C640 0 608 0 576 0C544 0 512 0 480 0C448 0 416 0 384 0C352 0 320 0 288 0C256 0 224 0 192 0C160 0 128 0 96 0C64 0 32 0 16 0L0 0Z" fill="#6600ff"></path><path d="M0 222L16 229.5C32 237 64 252 96 260.2C128 268.3 160 269.7 192 266C224 262.3 256 253.7 288 262C320 270.3 352 295.7 384 298.3C416 301 448 281 480 275.7C512 270.3 544 279.7 576 284C608 288.3 640 287.7 672 279.7C704 271.7 736 256.3 768 243.3C800 230.3 832 219.7 864 230.5C896 241.3 928 273.7 944 289.8L960 306L960 0L944 0C928 0 896 0 864 0C832 0 800 0 768 0C736 0 704 0 672 0C640 0 608 0 576 0C544 0 512 0 480 0C448 0 416 0 384 0C352 0 320 0 288 0C256 0 224 0 192 0C160 0 128 0 96 0C64 0 32 0 16 0L0 0Z" fill="#7b76ff"></path><path d="M0 194L16 190.5C32 187 64 180 96 173.2C128 166.3 160 159.7 192 154.3C224 149 256 145 288 152.3C320 159.7 352 178.3 384 187.2C416 196 448 195 480 192.7C512 190.3 544 186.7 576 180.5C608 174.3 640 165.7 672 171C704 176.3 736 195.7 768 193.5C800 191.3 832 167.7 864 164.7C896 161.7 928 179.3 944 188.2L960 197L960 0L944 0C928 0 896 0 864 0C832 0 800 0 768 0C736 0 704 0 672 0C640 0 608 0 576 0C544 0 512 0 480 0C448 0 416 0 384 0C352 0 320 0 288 0C256 0 224 0 192 0C160 0 128 0 96 0C64 0 32 0 16 0L0 0Z" fill="#aeb7ff"></path><path d="M0 84L16 86.5C32 89 64 94 96 93.7C128 93.3 160 87.7 192 95.7C224 103.7 256 125.3 288 123C320 120.7 352 94.3 384 90.5C416 86.7 448 105.3 480 105.8C512 106.3 544 88.7 576 84.8C608 81 640 91 672 99.7C704 108.3 736 115.7 768 120.7C800 125.7 832 128.3 864 126.5C896 124.7 928 118.3 944 115.2L960 112L960 0L944 0C928 0 896 0 864 0C832 0 800 0 768 0C736 0 704 0 672 0C640 0 608 0 576 0C544 0 512 0 480 0C448 0 416 0 384 0C352 0 320 0 288 0C256 0 224 0 192 0C160 0 128 0 96 0C64 0 32 0 16 0L0 0Z" fill="#f2f3f7"></path></svg>